<svg width="1700" height="2200" viewBox="0 0 1700 2200" fill="none" xmlns="http://www.w3.org/2000/svg">
<path d="M850 1990.92L828.551 2024.68H871.448L850 1990.92ZM850 1990.92L862.402 2010.43C871.425 2024.63 871.465 2024.67 871.477 2024.66C871.485 2024.66 871.503 2024.65 871.519 2024.64C871.551 2024.61 871.592 2024.59 871.641 2024.56C871.739 2024.5 871.87 2024.41 872.035 2024.3C872.366 2024.09 872.83 2023.79 873.422 2023.41C874.607 2022.64 876.309 2021.52 878.492 2020.06C882.858 2017.15 889.154 2012.88 897.103 2007.29C912.996 1996.11 935.525 1979.65 962.479 1958.24C1016.33 1915.48 1088.15 1852.76 1160.07 1772.8C1303.25 1613.63 1450.67 1381.81 1450.67 1100.5V477.208L1427.87 441.097L867.204 173.972H832.795L272.128 441.097L249.333 477.208V1100.5C249.333 1381.81 396.748 1613.63 539.928 1772.8C611.849 1852.76 683.672 1915.48 737.522 1958.24C764.475 1979.65 787.005 1996.11 802.898 2007.29C810.846 2012.88 817.141 2017.15 821.507 2020.06C823.69 2021.52 825.392 2022.64 826.577 2023.41C827.17 2023.79 827.634 2024.09 827.964 2024.3C828.129 2024.41 828.262 2024.5 828.36 2024.56C828.408 2024.59 828.449 2024.61 828.481 2024.64C828.497 2024.65 828.515 2024.66 828.523 2024.66C828.534 2024.67 828.545 2024.68 837.598 2010.43L850 1990.92Z" fill="#D0ECD6" stroke="#1A833B" stroke-width="80" stroke-linecap="round" stroke-linejoin="round"/>
<path d="M850.001 790C877.615 790 900.001 810.179 900.001 835.071V1015.36L899.997 1017.69C899.738 1091.43 887.199 1154.5 869.415 1181.55C868.916 1213.36 868.111 1243.28 867.052 1270.46H910.461C911.249 1270.46 911.728 1271.33 911.306 1272L901.124 1288.06C900.875 1288.45 900.421 1288.59 900.022 1288.49H866.295C862.669 1368.7 856.722 1421 850.001 1421C843.28 1421 837.334 1368.7 833.708 1288.49H800.536C800.137 1288.59 799.683 1288.45 799.435 1288.06L789.253 1272C788.831 1271.33 789.309 1270.46 790.097 1270.46H832.95C831.891 1243.28 831.086 1213.36 830.587 1181.55C812.803 1154.5 800.264 1091.43 800.005 1017.69L800.001 1015.36V835.071C800.001 810.179 822.387 790 850.001 790Z" fill="black"/>
<path d="M531.867 638.866C535.69 635.044 541.888 635.044 545.711 638.866L842.584 935.74C844.749 935.03 847.062 934.646 849.464 934.646C852.263 934.646 854.941 935.168 857.405 936.118L1154.42 639.107C1158.24 635.284 1164.44 635.284 1168.26 639.107C1172.09 642.929 1172.09 649.127 1168.26 652.949L870.664 950.547C871.234 952.507 871.541 954.58 871.541 956.724C871.541 959.126 871.155 961.437 870.446 963.602L1168.26 1261.42C1172.09 1265.24 1172.09 1271.44 1168.26 1275.26C1164.44 1279.09 1158.24 1279.09 1154.42 1275.26L856.731 977.574C854.455 978.368 852.01 978.801 849.464 978.801C847.32 978.801 845.247 978.494 843.287 977.924L545.711 1275.5C541.888 1279.32 535.69 1279.32 531.867 1275.5C528.044 1271.68 528.044 1265.48 531.867 1261.66L828.858 964.665C827.908 962.201 827.386 959.523 827.386 956.724C827.386 954.177 827.818 951.731 828.611 949.454L531.867 652.71C528.044 648.887 528.044 642.689 531.867 638.866Z" fill="black"/>
<path d="M531.867 638.866L530.453 637.452L530.453 637.452L531.867 638.866ZM545.711 638.866L547.125 637.452L547.125 637.452L545.711 638.866ZM842.584 935.74L841.17 937.154L842.039 938.023L843.207 937.64L842.584 935.74ZM849.464 934.646L849.464 932.646H849.464L849.464 934.646ZM857.405 936.118L856.686 937.984L857.899 938.453L858.819 937.533L857.405 936.118ZM1154.42 639.107L1155.83 640.521V640.521L1154.42 639.107ZM1168.26 639.107L1169.68 637.693L1169.68 637.692L1168.26 639.107ZM1168.26 652.949L1169.68 654.364L1169.68 654.364L1168.26 652.949ZM870.664 950.547L869.25 949.133L868.413 949.97L868.744 951.106L870.664 950.547ZM871.541 956.724L873.541 956.724V956.724H871.541ZM870.446 963.602L868.546 962.979L868.163 964.147L869.032 965.016L870.446 963.602ZM1168.26 1261.42L1169.68 1260.01H1169.68L1168.26 1261.42ZM1168.26 1275.26L1169.68 1276.68H1169.68L1168.26 1275.26ZM1154.42 1275.26L1153.01 1276.68V1276.68L1154.42 1275.26ZM856.731 977.574L858.146 976.16L857.258 975.273L856.073 975.686L856.731 977.574ZM849.464 978.801L849.464 980.801H849.464L849.464 978.801ZM843.287 977.924L843.846 976.004L842.71 975.673L841.873 976.51L843.287 977.924ZM545.711 1275.5L547.125 1276.92H547.125L545.711 1275.5ZM531.867 1275.5L530.453 1276.92H530.453L531.867 1275.5ZM531.867 1261.66L533.281 1263.07H533.281L531.867 1261.66ZM828.858 964.665L830.273 966.079L831.193 965.159L830.724 963.946L828.858 964.665ZM827.386 956.724H825.386V956.724L827.386 956.724ZM828.611 949.454L830.5 950.113L830.913 948.928L830.026 948.04L828.611 949.454ZM531.867 652.71L530.453 654.124L530.453 654.124L531.867 652.71ZM531.867 638.866L533.281 640.281C536.323 637.239 541.255 637.239 544.297 640.281L545.711 638.866L547.125 637.452C542.521 632.848 535.057 632.848 530.453 637.452L531.867 638.866ZM545.711 638.866L544.297 640.281L841.17 937.154L842.584 935.74L843.998 934.325L547.125 637.452L545.711 638.866ZM842.584 935.74L843.207 937.64C845.174 936.996 847.276 936.646 849.464 936.646L849.464 934.646L849.464 932.646C846.847 932.646 844.325 933.065 841.961 933.839L842.584 935.74ZM849.464 934.646L849.464 936.646C852.013 936.646 854.447 937.121 856.686 937.984L857.405 936.118L858.125 934.252C855.435 933.215 852.514 932.646 849.464 932.646L849.464 934.646ZM857.405 936.118L858.819 937.533L1155.83 640.521L1154.42 639.107L1153.01 637.692L855.991 934.704L857.405 936.118ZM1154.42 639.107L1155.83 640.521C1158.88 637.479 1163.81 637.479 1166.85 640.521L1168.26 639.107L1169.68 637.692C1165.07 633.089 1157.61 633.089 1153.01 637.692L1154.42 639.107ZM1168.26 639.107L1166.85 640.521C1169.89 643.563 1169.89 648.494 1166.85 651.535L1168.26 652.949L1169.68 654.364C1174.28 649.76 1174.28 642.296 1169.68 637.693L1168.26 639.107ZM1168.26 652.949L1166.85 651.535L869.25 949.133L870.664 950.547L872.078 951.961L1169.68 654.364L1168.26 652.949ZM870.664 950.547L868.744 951.106C869.262 952.887 869.541 954.771 869.541 956.724H871.541H873.541C873.541 954.388 873.207 952.128 872.585 949.989L870.664 950.547ZM871.541 956.724L869.541 956.724C869.541 958.91 869.19 961.012 868.546 962.979L870.446 963.602L872.347 964.224C873.121 961.862 873.541 959.341 873.541 956.724L871.541 956.724ZM870.446 963.602L869.032 965.016L1166.85 1262.83L1168.26 1261.42L1169.68 1260.01L871.861 962.188L870.446 963.602ZM1168.26 1261.42L1166.85 1262.83C1169.89 1265.88 1169.89 1270.81 1166.85 1273.85L1168.26 1275.26L1169.68 1276.68C1174.28 1272.07 1174.28 1264.61 1169.68 1260.01L1168.26 1261.42ZM1168.26 1275.26L1166.85 1273.85C1163.81 1276.89 1158.88 1276.89 1155.83 1273.85L1154.42 1275.26L1153.01 1276.68C1157.61 1281.28 1165.07 1281.28 1169.68 1276.68L1168.26 1275.26ZM1154.42 1275.26L1155.83 1273.85L858.146 976.16L856.731 977.574L855.317 978.989L1153.01 1276.68L1154.42 1275.26ZM856.731 977.574L856.073 975.686C854.005 976.407 851.782 976.801 849.464 976.801L849.464 978.801L849.464 980.801C852.239 980.801 854.906 980.329 857.39 979.463L856.731 977.574ZM849.464 978.801L849.464 976.801C847.511 976.801 845.627 976.522 843.846 976.004L843.287 977.924L842.729 979.844C844.868 980.467 847.128 980.801 849.464 980.801L849.464 978.801ZM843.287 977.924L841.873 976.51L544.297 1274.09L545.711 1275.5L547.125 1276.92L844.701 979.338L843.287 977.924ZM545.711 1275.5L544.297 1274.09C541.255 1277.13 536.323 1277.13 533.281 1274.09L531.867 1275.5L530.453 1276.92C535.057 1281.52 542.521 1281.52 547.125 1276.92L545.711 1275.5ZM531.867 1275.5L533.281 1274.09C530.24 1271.05 530.24 1266.11 533.281 1263.07L531.867 1261.66L530.453 1260.24C525.849 1264.85 525.849 1272.31 530.453 1276.92L531.867 1275.5ZM531.867 1261.66L533.281 1263.07L830.273 966.079L828.858 964.665L827.444 963.251L530.453 1260.24L531.867 1261.66ZM828.858 964.665L830.724 963.946C829.861 961.707 829.386 959.273 829.386 956.724L827.386 956.724L825.386 956.724C825.386 959.774 825.955 962.695 826.992 965.385L828.858 964.665ZM827.386 956.724H829.386C829.386 954.404 829.779 952.181 830.5 950.113L828.611 949.454L826.723 948.796C825.857 951.281 825.386 953.949 825.386 956.724H827.386ZM828.611 949.454L830.026 948.04L533.281 651.296L531.867 652.71L530.453 654.124L827.197 950.869L828.611 949.454ZM531.867 652.71L533.281 651.296C530.24 648.254 530.24 643.322 533.281 640.281L531.867 638.866L530.453 637.452C525.849 642.056 525.849 649.521 530.453 654.124L531.867 652.71Z" fill="white"/>
<path d="M997.713 1183.55C978.326 1202.94 955.309 1218.32 929.978 1228.81C879.178 1249.85 820.982 1249.85 770.182 1228.81C744.851 1218.32 721.834 1202.94 702.447 1183.55C735.495 1216.6 803.342 1230.79 850.08 1230.79C896.818 1230.79 964.664 1216.6 997.713 1183.55ZM623.649 808.358C590.6 841.406 576.406 909.252 576.406 955.99C576.406 1002.73 590.6 1070.57 623.649 1103.62C604.261 1084.24 588.882 1061.22 578.39 1035.89C557.348 985.088 557.348 926.892 578.39 876.092C588.882 850.761 604.261 827.745 623.649 808.358ZM1077.61 808.358C1096.99 827.745 1112.37 850.761 1122.87 876.092C1143.91 926.892 1143.91 985.088 1122.87 1035.89C1112.37 1061.22 1097 1084.24 1077.61 1103.62C1110.66 1070.57 1124.85 1002.73 1124.85 955.99C1124.85 909.252 1110.66 841.406 1077.61 808.358ZM770.153 684.33C820.953 663.288 879.149 663.288 929.949 684.33C955.28 694.823 978.296 710.202 997.684 729.589C964.635 696.54 896.789 682.347 850.051 682.347C803.313 682.347 735.466 696.54 702.417 729.589C721.805 710.202 744.822 694.823 770.153 684.33Z" fill="#00509C"/>
<path d="M1106.36 1352.61C1072.57 1386.4 1032.45 1413.21 988.301 1431.49C899.76 1468.17 798.328 1468.17 709.787 1431.49C665.637 1413.21 625.521 1386.4 591.73 1352.61C649.332 1410.21 767.583 1434.95 849.044 1434.95C930.506 1434.95 1048.76 1410.21 1106.36 1352.61ZM454.389 698.677C396.787 756.279 372.048 874.53 372.048 955.992C372.048 1037.45 396.787 1155.7 454.389 1213.31C420.598 1179.52 393.794 1139.4 375.506 1095.25C338.831 1006.71 338.831 905.277 375.506 816.735C393.794 772.585 420.598 732.468 454.389 698.677ZM1245.61 698.677C1279.4 732.468 1306.21 772.584 1324.49 816.734C1361.17 905.276 1361.17 1006.71 1324.49 1095.25C1306.21 1139.4 1279.4 1179.52 1245.61 1213.31C1303.21 1155.7 1327.95 1037.45 1327.95 955.992C1327.95 874.53 1303.21 756.279 1245.61 698.677ZM709.736 482.506C798.277 445.831 899.709 445.831 988.25 482.506C1032.4 500.794 1072.52 527.598 1106.31 561.389C1048.71 503.788 930.454 479.049 848.993 479.049C767.532 479.049 649.281 503.788 591.679 561.389C625.47 527.598 665.586 500.794 709.736 482.506Z" fill="#00509C"/>
<path d="M1050.15 1263.18C1023.91 1289.42 992.753 1310.23 958.465 1324.44C889.703 1352.92 810.931 1352.92 742.168 1324.44C707.881 1310.23 676.727 1289.42 650.485 1263.18C695.219 1307.91 787.053 1327.12 850.317 1327.12C913.58 1327.12 1005.42 1307.91 1050.15 1263.18ZM543.825 755.326C499.091 800.06 479.878 891.895 479.878 955.159C479.878 1018.42 499.091 1110.26 543.825 1154.99C517.582 1128.75 496.766 1097.59 482.564 1063.31C454.082 994.545 454.082 915.773 482.564 847.01C496.766 812.723 517.582 781.568 543.825 755.326ZM1158.29 755.326C1184.54 781.568 1205.35 812.723 1219.56 847.01C1248.04 915.773 1248.04 994.545 1219.56 1063.31C1205.35 1097.59 1184.54 1128.75 1158.29 1154.99C1203.03 1110.26 1222.24 1018.42 1222.24 955.159C1222.24 891.895 1203.03 800.06 1158.29 755.326ZM742.129 587.446C810.892 558.964 889.664 558.964 958.426 587.446C992.714 601.648 1023.87 622.465 1050.11 648.708C1005.38 603.974 913.541 584.76 850.278 584.76C787.014 584.76 695.18 603.974 650.446 648.708C676.688 622.465 707.842 601.648 742.129 587.446Z" fill="#00509C"/>
<circle cx="850" cy="956" r="13" fill="white"/>
</svg>
